# xmcd
#
# Track frame offsets:
#	150
#	18460
#	40280
#	58965
#	81052
#	103855
#	122930
#	131722
#	147610
#	170050
#	188190
#	211807
#	233687
#	256812
#
# Disc length: 3679 seconds
#
# Revision: 0
# Processed by: cddbd v1.5.2PL0 Copyright (c) Steve Scherf et al.
# Submitted via: EZCDAudioConverter 1.3.4.1
#
DISCID=d10e5d0e
DTITLE=Boyz II Men - Full Circle
DYEAR=2002
DGENRE=R&B
TTITLE0=Relax Your Mind (feat. Faith Evans)
TTITLE1=The Color of Love
TTITLE2=Ain't a Thang Wrong (feat. Rob Jackson)
TTITLE3=Oh Well
TTITLE4=Whatcha Need
TTITLE5=On the Road Again
TTITLE6=Makin' Love (interlude)
TTITLE7=Roll Wit Me
TTITLE8=Right on Time
TTITLE9=Howz About It
TTITLE10=That's Why I Love You
TTITLE11=I'm OK, You're OK
TTITLE12=Luv N U
TTITLE13=I'll Show You
EXTD=
EXTT0=
EXTT1=
EXTT2=
EXTT3=
EXTT4=
EXTT5=
EXTT6=
EXTT7=
EXTT8=
EXTT9=
EXTT10=
EXTT11=
EXTT12=
EXTT13=
PLAYORDER=
